<?xml version="1.0" encoding="utf-8"?>
<!-- Generator: Adobe Illustrator 25.0.0, SVG Export Plug-In . SVG Version: 6.00 Build 0)  -->
<svg version="1.1" id="Layer_1" xmlns="http://www.w3.org/2000/svg" xmlns:xlink="http://www.w3.org/1999/xlink" x="0px" y="0px"
	 viewBox="0 0 1440 900" style="enable-background:new 0 0 1440 900;" xml:space="preserve">
<style type="text/css">
	.st0{opacity:0.24;fill:none;stroke:#69FF4B;stroke-width:9;stroke-miterlimit:10;}
	.st1{opacity:0.24;fill:none;stroke:#FFA54B;stroke-width:9;stroke-miterlimit:10;}
	.st2{opacity:0.24;fill:none;stroke:#A072D3;stroke-width:9;stroke-miterlimit:10;}
	.st3{opacity:0.24;fill:none;stroke:#A072D3;stroke-width:4;stroke-miterlimit:10;}
	.st4{opacity:0.24;fill:none;stroke:#69FF4B;stroke-width:4;stroke-miterlimit:10;}
	.st5{opacity:0.24;fill:none;stroke:#FFA54B;stroke-width:4;stroke-miterlimit:10;}
	.st6{opacity:0.24;}
	.st7{fill:url(#SVGID_1_);}
	.st8{fill:url(#SVGID_2_);}
	.st9{fill:url(#SVGID_3_);}
	.st10{fill:url(#SVGID_4_);}
	.st11{fill:url(#SVGID_5_);}
	.st12{fill:url(#SVGID_6_);}
	.st13{fill:url(#SVGID_7_);}
	.st14{fill:url(#SVGID_8_);}
</style>
<circle class="st0" cx="123.77" cy="155.91" r="52.37"/>
<circle class="st0" cx="1278.24" cy="706.09" r="52.37"/>
<circle class="st1" cx="851.38" cy="181.96" r="52.37"/>
<circle class="st2" cx="1299.14" cy="279.68" r="52.37"/>
<circle class="st2" cx="267.53" cy="769.63" r="52.37"/>
<circle class="st3" cx="606.32" cy="288.53" r="18.21"/>
<circle class="st3" cx="1033.16" cy="557.4" r="18.21"/>
<circle class="st3" cx="1112.98" cy="40.87" r="18.21"/>
<circle class="st4" cx="402.69" cy="226.71" r="18.21"/>
<circle class="st4" cx="976.07" cy="758.38" r="18.21"/>
<circle class="st5" cx="71.47" cy="629.1" r="18.21"/>
<circle class="st5" cx="707.44" cy="781.79" r="18.21"/>
<circle class="st5" cx="215.14" cy="379.93" r="18.21"/>
<circle class="st5" cx="1113.29" cy="388.89" r="18.21"/>
<circle class="st3" cx="519.92" cy="41.21" r="18.21"/>
<circle class="st2" cx="443.28" cy="629.37" r="32.1"/>
<g class="st6">
	<linearGradient id="SVGID_1_" gradientUnits="userSpaceOnUse" x1="802.1208" y1="559.0599" x2="595.1347" y2="352.0738">
		<stop  offset="0" style="stop-color:#72A7F9;stop-opacity:0"/>
		<stop  offset="1" style="stop-color:#72A7F9"/>
	</linearGradient>
	<polygon class="st7" points="765.17,381.99 998.45,615.27 718.21,615.27 667.18,564.24 	"/>
	<linearGradient id="SVGID_2_" gradientUnits="userSpaceOnUse" x1="706.7608" y1="553.1566" x2="434.7175" y2="281.1133">
		<stop  offset="0" style="stop-color:#72A7F9;stop-opacity:0"/>
		<stop  offset="1" style="stop-color:#72A7F9"/>
	</linearGradient>
	<path class="st8" d="M631.5,380.21l-56.64,89.43l45.31,94.6l51.03,51.03h195.36C806.94,555.66,631.5,380.21,631.5,380.21z"/>
	<linearGradient id="SVGID_3_" gradientUnits="userSpaceOnUse" x1="888.4844" y1="561.8802" x2="785.77" y2="459.1658">
		<stop  offset="0" style="stop-color:#72A7F9;stop-opacity:0"/>
		<stop  offset="1" style="stop-color:#72A7F9"/>
	</linearGradient>
	<polygon class="st9" points="890.13,472.4 1033,615.27 850.75,615.27 799.72,564.24 	"/>
	<g>
		<g>
			<g>
				<linearGradient id="SVGID_4_" gradientUnits="userSpaceOnUse" x1="541.3564" y1="472.4005" x2="634.2053" y2="472.4005">
					<stop  offset="0" style="stop-color:#72A7F9"/>
					<stop  offset="1" style="stop-color:#5574FA"/>
				</linearGradient>
				<path class="st10" d="M541.36,472.4l78.37-91.32c4.98-5.8,14.48-2.28,14.48,5.36v21.49c0,5.86-2.1,11.52-5.91,15.96
					l-41.62,48.51l41.62,48.5c3.81,4.45,5.91,10.11,5.91,15.97v21.49c0,7.64-9.5,11.16-14.48,5.36L541.36,472.4z"/>
				<linearGradient id="SVGID_5_" gradientUnits="userSpaceOnUse" x1="617.8978" y1="532.7802" x2="529.0671" y2="443.9494">
					<stop  offset="0" style="stop-color:#3894F9"/>
					<stop  offset="1" style="stop-color:#225CBD"/>
				</linearGradient>
				<path class="st11" d="M541.36,472.4l78.37,91.32c4.98,5.8,14.48,2.28,14.48-5.36v-21.49c0-5.86-2.1-11.52-5.91-15.97
					l-41.62-48.5H541.36z"/>
			</g>
			<g>
				
					<linearGradient id="SVGID_6_" gradientUnits="userSpaceOnUse" x1="341.4288" y1="472.4005" x2="434.2778" y2="472.4005" gradientTransform="matrix(-1 0 0 1 1231.5627 0)">
					<stop  offset="0" style="stop-color:#72A7F9"/>
					<stop  offset="1" style="stop-color:#5574FA"/>
				</linearGradient>
				<path class="st12" d="M890.13,472.4l-78.37-91.32c-4.98-5.8-14.48-2.28-14.48,5.36v21.49c0,5.86,2.1,11.52,5.91,15.96
					l41.62,48.51l-41.62,48.5c-3.81,4.45-5.91,10.11-5.91,15.97v21.49c0,7.64,9.5,11.16,14.48,5.36L890.13,472.4z"/>
				
					<linearGradient id="SVGID_7_" gradientUnits="userSpaceOnUse" x1="417.9702" y1="532.7803" x2="329.1394" y2="443.9495" gradientTransform="matrix(-1 0 0 1 1231.5627 0)">
					<stop  offset="0" style="stop-color:#3894F9"/>
					<stop  offset="1" style="stop-color:#225CBD"/>
				</linearGradient>
				<path class="st13" d="M890.13,472.4l-78.37,91.32c-4.98,5.8-14.48,2.28-14.48-5.36v-21.49c0-5.86,2.1-11.52,5.91-15.97
					l41.62-48.5H890.13z"/>
			</g>
		</g>
		<linearGradient id="SVGID_8_" gradientUnits="userSpaceOnUse" x1="721.5922" y1="514.0486" x2="709.5922" y2="428.549">
			<stop  offset="0" style="stop-color:#72A7F9"/>
			<stop  offset="1" style="stop-color:#5574FA"/>
		</linearGradient>
		<path class="st14" d="M730.23,382.42l-64.1,175.53c-1.53,4.2,1.57,8.64,6.04,8.64h23.05c2.7,0,5.12-1.69,6.04-4.23l64.1-175.53
			c1.53-4.2-1.57-8.64-6.04-8.64h-23.05C733.57,378.19,731.15,379.88,730.23,382.42z"/>
	</g>
</g>
</svg>
