<?xml version="1.0" encoding="utf-8"?>
<!-- Generator: Adobe Illustrator 25.0.0, SVG Export Plug-In . SVG Version: 6.00 Build 0)  -->
<svg version="1.1" id="Layer_1" xmlns="http://www.w3.org/2000/svg" xmlns:xlink="http://www.w3.org/1999/xlink" x="0px" y="0px"
	 viewBox="0 0 1440 900" style="enable-background:new 0 0 1440 900;" xml:space="preserve">
<style type="text/css">
	.st0{opacity:0.24;fill:none;stroke:#69FF4B;stroke-width:9;stroke-miterlimit:10;}
	.st1{opacity:0.24;fill:none;stroke:#FFA54B;stroke-width:9;stroke-miterlimit:10;}
	.st2{opacity:0.24;fill:none;stroke:#A072D3;stroke-width:9;stroke-miterlimit:10;}
	.st3{opacity:0.24;fill:none;stroke:#A072D3;stroke-width:4;stroke-miterlimit:10;}
	.st4{opacity:0.24;fill:none;stroke:#69FF4B;stroke-width:4;stroke-miterlimit:10;}
	.st5{opacity:0.24;fill:none;stroke:#FFA54B;stroke-width:4;stroke-miterlimit:10;}
	.st6{opacity:0.24;}
	.st7{fill:url(#SVGID_1_);}
	.st8{fill:url(#SVGID_2_);}
	.st9{fill:url(#SVGID_3_);}
	.st10{fill:url(#SVGID_4_);}
	.st11{fill:url(#SVGID_5_);}
	.st12{fill:url(#SVGID_6_);}
	.st13{fill:url(#SVGID_7_);}
	.st14{fill:url(#SVGID_8_);}
</style>
<circle class="st0" cx="202.77" cy="182.91" r="52.37"/>
<circle class="st0" cx="1173.24" cy="653.09" r="52.37"/>
<circle class="st1" cx="823.38" cy="181.96" r="52.37"/>
<circle class="st2" cx="1247.14" cy="311.68" r="52.37"/>
<circle class="st2" cx="303.53" cy="799.63" r="52.37"/>
<circle class="st3" cx="621.32" cy="327.53" r="18.21"/>
<circle class="st3" cx="974.16" cy="487.4" r="18.21"/>
<circle class="st3" cx="952.98" cy="49.87" r="18.21"/>
<circle class="st4" cx="484.69" cy="208.71" r="18.21"/>
<circle class="st4" cx="967.07" cy="751.38" r="18.21"/>
<circle class="st5" cx="157.47" cy="664.1" r="18.21"/>
<circle class="st5" cx="707.44" cy="781.79" r="18.21"/>
<circle class="st5" cx="358.14" cy="362.93" r="18.21"/>
<circle class="st5" cx="1113.29" cy="388.89" r="18.21"/>
<circle class="st3" cx="537.92" cy="41.21" r="18.21"/>
<circle class="st2" cx="460.28" cy="674.37" r="32.1"/>
<g class="st6">
	<linearGradient id="SVGID_1_" gradientUnits="userSpaceOnUse" x1="766.4481" y1="589.3074" x2="576.4523" y2="399.3116">
		<stop  offset="0" style="stop-color:#72A7F9;stop-opacity:0"/>
		<stop  offset="1" style="stop-color:#72A7F9"/>
	</linearGradient>
	<polygon class="st7" points="732.53,426.77 946.66,640.9 689.43,640.9 642.59,594.07 	"/>
	<linearGradient id="SVGID_2_" gradientUnits="userSpaceOnUse" x1="678.9156" y1="583.8886" x2="429.2029" y2="334.1758">
		<stop  offset="0" style="stop-color:#72A7F9;stop-opacity:0"/>
		<stop  offset="1" style="stop-color:#72A7F9"/>
	</linearGradient>
	<path class="st8" d="M609.83,425.14l-51.99,82.09l41.59,86.83l46.84,46.84h179.33C770.87,586.18,609.83,425.14,609.83,425.14z"/>
	<linearGradient id="SVGID_3_" gradientUnits="userSpaceOnUse" x1="845.7225" y1="591.8961" x2="751.4394" y2="497.613">
		<stop  offset="0" style="stop-color:#72A7F9;stop-opacity:0"/>
		<stop  offset="1" style="stop-color:#72A7F9"/>
	</linearGradient>
	<polygon class="st9" points="847.24,509.76 978.38,640.9 811.08,640.9 764.25,594.07 	"/>
	<g>
		<g>
			<g>
				<linearGradient id="SVGID_4_" gradientUnits="userSpaceOnUse" x1="527.0884" y1="509.7614" x2="612.3159" y2="509.7614">
					<stop  offset="0" style="stop-color:#72A7F9"/>
					<stop  offset="1" style="stop-color:#5574FA"/>
				</linearGradient>
				<path class="st10" d="M527.09,509.76l71.94-83.83c4.57-5.32,13.29-2.09,13.29,4.92v19.73c0,5.38-1.92,10.57-5.43,14.65
					l-38.21,44.52l38.2,44.52c3.5,4.08,5.43,9.28,5.43,14.65v19.73c0,7.01-8.72,10.24-13.29,4.92L527.09,509.76z"/>
				<linearGradient id="SVGID_5_" gradientUnits="userSpaceOnUse" x1="597.3469" y1="565.1848" x2="515.8078" y2="483.6457">
					<stop  offset="0" style="stop-color:#3894F9"/>
					<stop  offset="1" style="stop-color:#225CBD"/>
				</linearGradient>
				<path class="st11" d="M527.09,509.76l71.94,83.82c4.57,5.32,13.29,2.09,13.29-4.92v-19.73c0-5.38-1.92-10.57-5.43-14.65
					l-38.2-44.52H527.09z"/>
			</g>
			<g>
				
					<linearGradient id="SVGID_6_" gradientUnits="userSpaceOnUse" x1="384.3261" y1="509.7614" x2="469.5536" y2="509.7614" gradientTransform="matrix(-1 0 0 1 1231.5627 0)">
					<stop  offset="0" style="stop-color:#72A7F9"/>
					<stop  offset="1" style="stop-color:#5574FA"/>
				</linearGradient>
				<path class="st12" d="M847.24,509.76l-71.94-83.83c-4.57-5.32-13.29-2.09-13.29,4.92v19.73c0,5.38,1.92,10.57,5.43,14.65
					l38.21,44.52l-38.2,44.52c-3.5,4.08-5.43,9.28-5.43,14.65v19.73c0,7.01,8.72,10.24,13.29,4.92L847.24,509.76z"/>
				
					<linearGradient id="SVGID_7_" gradientUnits="userSpaceOnUse" x1="454.5846" y1="565.1849" x2="373.0455" y2="483.6457" gradientTransform="matrix(-1 0 0 1 1231.5627 0)">
					<stop  offset="0" style="stop-color:#3894F9"/>
					<stop  offset="1" style="stop-color:#225CBD"/>
				</linearGradient>
				<path class="st13" d="M847.24,509.76l-71.94,83.82c-4.57,5.32-13.29,2.09-13.29-4.92v-19.73c0-5.38,1.92-10.57,5.43-14.65
					l38.2-44.52H847.24z"/>
			</g>
		</g>
		<linearGradient id="SVGID_8_" gradientUnits="userSpaceOnUse" x1="692.5295" y1="547.9908" x2="681.5146" y2="469.5094">
			<stop  offset="0" style="stop-color:#72A7F9"/>
			<stop  offset="1" style="stop-color:#5574FA"/>
		</linearGradient>
		<path class="st14" d="M700.46,427.16l-58.84,161.12c-1.41,3.85,1.45,7.93,5.55,7.93h21.16c2.48,0,4.7-1.55,5.55-3.88l58.84-161.12
			c1.41-3.85-1.45-7.93-5.55-7.93H706C703.52,423.28,701.31,424.83,700.46,427.16z"/>
	</g>
</g>
</svg>
